<svg xmlns="http://www.w3.org/2000/svg" width="1800" height="1350"><path fill="#FFF" d="m818.66 359.499 2.24-.017a638 638 0 0 1 7.383.016q2.657-.005 5.314-.016c4.8-.014 9.599-.003 14.398.014 5.03.014 10.059.007 15.088.003q12.668-.002 25.337.034c9.755.027 19.51.029 29.265.017q14.091-.014 28.184.01 5.99.007 11.979 0 7.057-.006 14.117.028 2.585.008 5.17 0c2.36-.005 4.72.007 7.079.024l3.994.008c5.604.562 10.077 2.272 14.792 5.317 2.088 3.198 2.544 4.705 2.875 8.438-.25 5.267-1.813 9.086-4.563 13.5a519 519 0 0 1-3.888 5.927c-2.619 4.042-5 8.225-7.424 12.385-5.382 9.146-10.878 18.222-16.4 27.284A2187 2187 0 0 0 958 458.5a2231 2231 0 0 1-16.313 27.187 2556 2556 0 0 0-16.986 28.284c-6.27 10.59-12.551 21.174-18.915 31.709q-1.08 1.79-2.156 3.582c-9.98 16.622-9.98 16.622-14.604 20.314-4.336 2.04-8.233 1.84-12.97 1.809l-3.022.016q-3.242.015-6.485.01c-3.421-.005-6.842.01-10.263.028-8.496.043-16.992.054-25.487.066q-10.772.016-21.545.075c-3.37.014-6.74.01-10.112.005l-6.199.03-2.84-.018c-3.908.037-6.556.15-10.145 1.806-2.026 1.49-2.026 1.49-3.235 3.534-1.034 2.95-1.307 5.358-1.211 8.481.914 4.834 3.671 8.641 6.307 12.725 1.76 2.768 3.425 5.59 5.1 8.41 4.623 7.771 9.324 15.495 14.026 23.218a3422 3422 0 0 1 20.867 34.729l1.229 2.073q2.378 4.011 4.753 8.022a3348 3348 0 0 0 20.207 33.629c6.653 10.931 13.285 21.873 19.82 32.876q1.544 2.598 3.09 5.195l1.894 3.197 1.655 2.793c2.87 5.061 4.97 8.875 4.977 14.777-.1 3.864-.273 5.645-2.187 9.063-2.173 1.81-3.628 2.863-6.25 3.875-2.55.193-4.99.279-7.54.267l-2.311.014c-2.558.013-5.116.011-7.674.01q-2.75.008-5.5.02c-4.98.018-9.962.022-14.944.024-4.157.001-8.315.009-12.472.016q-14.714.023-29.426.02c-10.12-.002-20.24.02-30.36.051q-13.032.038-26.062.036c-5.19 0-10.378.005-15.567.026q-7.32.029-14.641.005-2.687-.003-5.372.015c-2.446.015-4.891.006-7.337-.01l-2.144.032c-3.661-.051-5.764-.59-8.997-2.374-3.117-2.528-4.87-5.038-6.966-8.457l-1.15-1.857A539 539 0 0 1 669 762l-1.122-1.858c-2.26-3.744-4.489-7.505-6.706-11.275a4318 4318 0 0 0-7.432-12.577c-4.214-7.109-8.501-14.172-12.803-21.228-4.865-7.984-9.696-15.984-14.415-24.056-4.554-7.787-9.211-15.512-13.86-23.243q-3.548-5.901-7.089-11.807l-3.78-6.299q-4.904-8.172-9.8-16.348c-7.665-12.81-7.665-12.81-15.43-25.559l-1.778-2.906a213 213 0 0 0-4.039-6.188c-5.332-7.997-5.332-7.997-6.387-12.226-.183-3.86.6-6.862 2.328-10.305 2.448-3.307 3.601-4.468 7.313-6.125 3.316-.433 6.604-.407 9.943-.385l3.023-.016q3.242-.015 6.485-.01c3.421.005 6.842-.01 10.263-.028 8.496-.043 16.992-.054 25.487-.066a5506 5506 0 0 0 21.545-.075c3.37-.014 6.74-.01 10.112-.005l6.199-.03 2.84.018c3.878-.036 6.545-.148 10.11-1.777 2.508-2.046 3.882-4.135 5.532-6.919l1.98-3.3 2.106-3.595q1.115-1.873 2.234-3.744a2223 2223 0 0 0 5.926-10.009c2.013-3.412 4.038-6.817 6.063-10.223q3.63-6.107 7.252-12.221c6.406-10.816 12.924-21.56 19.48-32.286 2.276-3.733 4.519-7.485 6.76-11.238a1835 1835 0 0 1 7.32-12.107c7.686-12.62 15.313-25.269 22.84-37.984a3261 3261 0 0 1 24.695-41.027 608 608 0 0 0 4.84-8.13l1.353-2.269a214 214 0 0 0 2.308-3.96c1.84-3.047 3.509-4.753 6.467-6.764 3.854-2.1 7.087-2.35 11.496-2.351"/><path fill="#FEFEFE" d="m937.502 569.733 2.3-.014c2.543-.013 5.087-.011 7.631-.01q2.735-.008 5.47-.02c4.955-.018 9.91-.022 14.864-.024 4.135-.001 8.27-.009 12.405-.016q14.634-.023 29.268-.02c10.066.002 20.131-.02 30.197-.051q12.96-.038 25.921-.036c5.161 0 10.322-.005 15.483-.026q7.282-.029 14.563-.005 2.67.003 5.343-.015c2.433-.015 4.864-.006 7.297.01l2.132-.032c3.652.051 5.744.592 8.969 2.374 3.119 2.528 4.87 5.036 6.967 8.457l1.151 1.857A539 539 0 0 1 1131 588l1.122 1.858c2.26 3.744 4.489 7.505 6.706 11.275a4318 4318 0 0 0 7.432 12.577c4.214 7.109 8.501 14.172 12.802 21.228 4.861 7.977 9.69 15.969 14.403 24.034 4.554 7.79 9.213 15.516 13.864 23.248L1189 685l2.058 3.422a4317 4317 0 0 1 14.772 24.79 3363 3363 0 0 0 23.002 38.28l2.02 3.313 1.775 2.905c1.953 3.257 2.599 5.247 2.748 9.04-.024 2.77-.092 4.693-1.352 7.172-2.303 2.854-4.663 4.702-8.023 6.078-2.087.253-2.087.253-4.358.258l-2.62.021-2.852-.008-3.022.016q-3.246.015-6.493.018c-3.426.004-6.85.02-10.276.04-9.738.056-19.477.087-29.215.111q-8.936.025-17.87.085-3.407.018-6.812.018c-3.175 0-6.349.018-9.523.04l-2.845-.014c-3.88.044-6.556.16-10.122 1.79-2.507 2.045-3.881 4.134-5.531 6.918l-1.979 3.299-2.107 3.596q-1.118 1.878-2.24 3.755c-1.987 3.332-3.96 6.672-5.93 10.014-1.975 3.348-3.961 6.69-5.947 10.031q-3.587 6.035-7.164 12.074a2625 2625 0 0 1-15.719 26.188l-1.043 1.714q-4.222 6.94-8.452 13.873-3.427 5.618-6.847 11.24-1.574 2.582-3.15 5.162a720 720 0 0 0-11.134 18.957 253 253 0 0 1-7.062 11.679c-4.717 7.439-9.208 15.007-13.693 22.587q-1.865 3.149-3.737 6.295c-3.803 6.399-7.59 12.806-11.316 19.25q-1.813 3.09-3.629 6.18l-1.596 2.821-1.54 2.597-1.284 2.224c-2.937 3.37-5.747 5.564-9.892 7.171-5.798.743-11.56.664-17.396.615q-2.658.006-5.315.017c-4.795.014-9.59-.003-14.386-.026-5.026-.02-10.053-.014-15.08-.012q-12.66-.002-25.319-.052c-9.747-.037-19.495-.046-29.242-.039-9.39.007-18.78-.004-28.17-.024q-5.985-.011-11.97-.009-7.053 0-14.105-.04a846 846 0 0 0-5.166-.005c-2.357.004-4.714-.011-7.071-.03l-3.991-.012c-5.6-.566-10.076-2.277-14.789-5.32-2.057-3.15-2.57-4.642-2.938-8.313.298-6.754 3.114-11.452 6.604-17.043q1.426-2.23 2.871-4.445c1.94-3 3.791-6.051 5.643-9.106 1.384-2.284 2.778-4.56 4.175-6.836a1574 1574 0 0 0 14.497-24.16 2462 2462 0 0 1 19.345-32.294A2645 2645 0 0 0 864.5 854a2931 2931 0 0 1 20.481-34.077c3.306-5.424 6.585-10.861 9.792-16.345l1.786-3.052q1.63-2.797 3.245-5.603c3.181-5.462 6.242-10.544 11.228-14.56 4.303-1.976 8.229-1.787 12.911-1.764l3.023-.02c3.292-.02 6.585-.02 9.878-.02q3.435-.018 6.87-.04c6.028-.037 12.057-.057 18.085-.072a8562 8562 0 0 0 28.947-.122c3.37-.016 6.741-.02 10.112-.023l6.199-.03 2.84.007c6.298-.015 6.298-.015 12.103-2.279 1.834-3.669 2.635-7.594 2.488-11.71-.987-4.631-3.758-8.423-6.277-12.369-2.412-3.826-4.704-7.726-7.024-11.608l-3.148-5.235a1284 1284 0 0 1-7.977-13.515c-3.69-6.315-7.507-12.543-11.375-18.75-4.957-7.96-9.776-15.99-14.523-24.078-4.545-7.727-9.188-15.392-13.852-23.047-5.447-8.945-10.841-17.915-16.125-26.958-2.555-4.37-5.167-8.706-7.779-13.043a1597 1597 0 0 1-10.135-17.142l-1.207-2.06-1.064-1.822c-.954-1.583-1.977-3.125-3.002-4.663a51.8 51.8 0 0 1 0-13c2.11-2.99 3.711-4.17 6.703-6.097 3.241-1.274 6.368-1.185 9.799-1.17"/></svg>